# xmcd
#
# Track frame offsets: 
#        150
#        13852
#        26760
#        38992
#        50976
#        63776
#        76748
#        88173
#        100094
#        113381
#        126969
#        137995
#        150180
#        162324
#        173329
#        184843
#        196359
#        208659
#        219246
#        228769
#        240353
#        250644
#        262491
#        273304
#        285301
#
# Disc length: 3936 seconds
#
# Revision: 0
# Processed by: cddbd v1.5.2PL0 Copyright (c) Steve Scherf et al.
# Submitted via: ExactAudioCopy v0.90b4
#
DISCID=4f0f5e19
DTITLE=Junior Parker - I'm Holding On
DYEAR=2012
DGENRE=Blues
TTITLE0=Dirty Friend Blues
TTITLE1=Can't Understand
TTITLE2=Please Baby Blues
TTITLE3=Backtracking
TTITLE4=I Wanna Ramble
TTITLE5=Driving Me Mad
TTITLE6=Mother In Law Blues
TTITLE7=Next Time You See Me
TTITLE8=That's All Right
TTITLE9=Pretty Baby
TTITLE10=Wondering
TTITLE11=Sitting And Thinking
TTITLE12=Barefoot Rock 
TTITLE13=Sometimes
TTITLE14=Sweet Home Chicago
TTITLE15=I'm Holding On
TTITLE16=Stranded
TTITLE17=Dangerous Woman
TTITLE18=You're On My Mind
TTITLE19=Stand By Me
TTITLE20=I'll Forget About You
TTITLE21=Driving Wheel
TTITLE22=Seven Days
TTITLE23=In The Dark
TTITLE24=How Long Can This Go On
EXTD=
EXTT0=
EXTT1=
EXTT2=
EXTT3=
EXTT4=
EXTT5=
EXTT6=
EXTT7=
EXTT8=
EXTT9=
EXTT10=
EXTT11=
EXTT12=
EXTT13=
EXTT14=
EXTT15=
EXTT16=
EXTT17=
EXTT18=
EXTT19=
EXTT20=
EXTT21=
EXTT22=
EXTT23=
EXTT24=
PLAYORDER=
